<svg data-name="afcb9ff3-8250-4c7a-bd11-73381c22471b" xmlns="http://www.w3.org/2000/svg" width="806" height="712.713" viewBox="0 0 806 712.713"><path d="M770.296 711.765l-1.073-.402c-.236-.09-23.709-9.082-34.705-29.474-10.996-20.392-5.611-44.945-5.556-45.19l.254-1.118 1.073.402c.235.089 23.708 9.082 34.704 29.474 10.996 20.392 5.611 44.945 5.556 45.19zm-34.017-30.825c9.297 17.241 27.845 26.08 32.545 28.097.894-5.037 3.696-25.407-5.592-42.631-9.287-17.223-27.843-26.074-32.545-28.097-.894 5.04-3.695 25.407 5.592 42.631z" fill="#3f3d56"/><path d="M742.922 674.736c19.76 11.889 27.37 35.503 27.37 35.503s-24.427 4.339-44.188-7.55-27.37-35.503-27.37-35.503 24.427-4.339 44.188 7.55z" fill="#6c63ff"/><path d="M424.792 381.964a12.52 12.52 0 0118.46-2.877 11.918 11.918 0 011.21 1.155l49.21-7.164 2.74-37.005a10.733 10.733 0 0121.408 1.581q-.007.099-.016.197l-4.798 51.926-.023.115a9.724 9.724 0 01-9.395 6.82l-57.882-.999a11.713 11.713 0 01-.726.992 12.52 12.52 0 01-18.668.764q-.374-.383-.708-.79a12.56 12.56 0 01-.812-14.715zM524.006 697.479l-14.036-.001-6.677-54.137 20.715.001-.002 54.137z" fill="#ffb7b7"/><path d="M527.585 711.084l-45.256-.001v-.573a17.616 17.616 0 0117.615-17.615h.001l27.641.001z" fill="#2f2e41"/><path fill="#ffb7b7" d="M622.082 684.754l-13.284 4.53L585 640.202l19.607-6.687 17.475 51.239z"/><path d="M629.862 696.475l-42.833 14.61-.185-.543a17.616 17.616 0 0110.985-22.358l26.162-8.923zM539.461 224.126s-13.97-4.614-22.95 13.84-22.95 38.755-22.95 38.755l7.982 1.846s1.996-12.918 6.985-14.764l-1.996 16.61s59.871 19.376 86.813-1.846l-.998-6.46s3.992.923 3.992 6.46l2.993-2.769s-2.993-5.536-11.974-12.918c-5.894-4.845-7.92-14.062-8.616-19.825a23.102 23.102 0 00-5.973-13.066c-5.968-6.396-16.843-13.194-33.308-5.863z" fill="#2f2e41"/><circle cx="544.611" cy="263.088" r="25.515" fill="#ffb7b7"/><path d="M510.59 309.613l-4.639-1.546s-9.278 3.866-9.278 10.824-1.546 34.794-1.546 34.794l20.876 2.32z" fill="#cbcbcb"/><path d="M593.622 461.697a12.064 12.064 0 01-.276-15.744l-13.023-109.066a9.722 9.722 0 0119.418-1.001l.005.107 11.65 109.182a11.711 11.711 0 011.165 1.364 12.144 12.144 0 01-2.724 16.956q-.2.146-.408.283a12.155 12.155 0 01-10.27 1.484 12.006 12.006 0 01-5.537-3.565z" fill="#ffb7b7"/><path d="M581.695 353.685l20.876-2.32s-1.546-27.835-1.546-34.793-9.279-10.825-9.279-10.825l-4.639 1.546z" fill="#cbcbcb"/><path d="M513.683 392.304S495.9 424.818 495.9 464.25s-1.547 220.359-1.547 220.359 23.196 10.825 37.113-2.32l12.371-200.255 48.711 196.39s23.196 4.639 34.02-3.093l-20.875-136.854s-8.506-128.35-31.701-137.628-60.309-8.545-60.309-8.545zM517.04 263.25c9.032-6.538 16.344-14.067 21.18-23.023 0 0 16.577 18.418 26.707 19.339s.92-22.102.92-22.102l-18.418-4.605-17.497 1.842-13.814 9.21z" fill="#2f2e41"/><path d="M570.126 301.108s.736-.395-43.296 1.209l-18.43 5.075-2.449.675s2.32 46.39 8.505 54.896 4.64 13.144 3.093 13.917-5.412-.773-3.093 3.093 5.412 1.546 2.32 3.866-4.64 10.825-4.64 10.825l68.041 9.278s2.32-30.154 8.505-45.618 7.732-21.65 7.732-21.65l-4.639-30.927z" fill="#cbcbcb"/><path d="M440.767 169.224h-3.913V62.037A62.037 62.037 0 00374.817 0h-227.09a62.037 62.037 0 00-62.036 62.037v588.035a62.037 62.037 0 0062.036 62.036h227.09a62.037 62.037 0 0062.037-62.036V245.52h3.913z" fill="#3f3d56"/><path d="M423.65 62.473v587.17a46.289 46.289 0 01-46.246 46.33H149.14a46.297 46.297 0 01-46.33-46.265V62.473a46.297 46.297 0 0146.265-46.33h27.745a22.008 22.008 0 0020.38 30.32h130.1a22.008 22.008 0 0020.38-30.32h29.64a46.289 46.289 0 0146.33 46.247v.083z" fill="#fff"/><path d="M423.65 149.343v-20h-30.27V19.003a46.186 46.186 0 00-16.06-2.86h-3.94v113.2h-105v-82.88h-20v82.88h-88v-113.2h-11.239a45.89 45.89 0 00-8.76.83v112.37h-37.57v20h37.57v46.26l-37.57 21.69v23.1l37.57-21.69v137.64h-37.57v20h37.57v199h-37.57v20h37.57v99.8a45.9 45.9 0 008.76.83h11.24v-100.63h88v100.63h20v-100.63h105v100.63h3.94a46.185 46.185 0 0016.06-2.86v-97.77h30.27v-20h-30.27v-87h30v-20h-30v-92h30.27v-20h-30.27v-122h30.27v-20h-30.27v-65zm-203.138 0l-60.13 34.72h-.001v-34.72zm-60.131 57.81l88-50.81v200h-88zm0 368.19v-199h88v199zm213 0h-105v-87h105zm0-107h-105v-92h105zm0-112h-105v-122h105zm0-142h-105v-65h105z" fill="#e5e5e5"/><path d="M440.38 214.713c0 63.512-115 205-115 205s-115-141.488-115-205a115 115 0 01230 0z" fill="#6c63ff"/><path d="M393.382 209.713a68 68 0 11-68-68 67.969 67.969 0 0168 67.937z" fill="#fff"/><circle cx="325.146" cy="211.222" r="25.333" fill="#6c63ff"/><path d="M361.912 269.083a68.072 68.072 0 01-73.07-.01 37.999 37.999 0 0173.07.01z" fill="#6c63ff"/><circle cx="325.381" cy="471.713" r="31" fill="#6c63ff"/><path d="M805 712.713H1a1 1 0 010-2h804a1 1 0 010 2z" fill="#cbcbcb"/></svg>