<svg data-name="Layer 1" xmlns="http://www.w3.org/2000/svg" width="748.185" height="373.56" viewBox="0 0 748.185 373.56"><path d="M176.01 325.06c-1.92 15.13-8.62 29.08-16.09 42.5-.37.67-.74 1.33-1.12 2H62.02c-1.72-.61-3.41-1.28-5.09-2a89.66 89.66 0 01-17.53-9.81C7.92 335.07-4.2 292.21 1.28 253.81c3.39-23.87 13.87-48.23 34.26-61.08a51.491 51.491 0 0136.98-6.48q.495.09.99.21c10.66 2.4 20.16 8.36 25.57 17.97 9.72 17.27 3.93 38.66-.85 57.88-4.77 19.23-7.35 42.23 6.48 56.41a35.276 35.276 0 0141.02-45.86c1 .21 1.99.45 2.97.75a32.714 32.714 0 016.75 2.83c16.31 9.11 22.91 30.09 20.56 48.62z" fill="#f2f2f2"/><path d="M112.91 367.56c2.16.73 4.34 1.39 6.53 2h-9.47q-2.64-.93-5.24-2c-.38-.15-.77-.31-1.15-.47-14.29-5.99-27.45-14.99-37.4-26.97a75.652 75.652 0 01-11.8-19.27 87.289 87.289 0 01-6.04-24.66c-1.8-17.38.03-35.24 3.47-52.31a218.11 218.11 0 0117.06-51.16q1.41-2.925 2.9-5.82a1.176 1.176 0 01.75-.65 1.314 1.314 0 01.99.21 1.545 1.545 0 01.61 2.04 215.667 215.667 0 00-18.1 49.31c-3.92 16.7-6.15 34.17-5.38 51.33.72 16.04 4.91 31.81 14.42 44.93a90.583 90.583 0 0033.93 27.84 113.94 113.94 0 0013.92 5.65zM151.08 369.56h-3.67c-.52-.66-1.02-1.33-1.51-2a81.263 81.263 0 01-14.4-33.09 79.404 79.404 0 016.84-49.37 81.554 81.554 0 017.39-12.24c1 .21 1.99.45 2.97.75A78.051 78.051 0 00134.14 307a77.437 77.437 0 0015.32 60.56c.53.68 1.07 1.35 1.62 2z" fill="#fff"/><path d="M338.691 186.258a10.743 10.743 0 00-9.603-13.383l-61.116-76.41-15.122 14.095 64.562 72.989a10.8 10.8 0 0021.28 2.71z" fill="#ffb8b8"/><path d="M279.696 108.603l-19.314 14.792a4.817 4.817 0 01-7.14-1.488l-11.766-21.209a13.377 13.377 0 0121.288-16.205l17.358 16.828a4.817 4.817 0 01-.426 7.282z" fill="#ccc"/><circle cx="247.26" cy="37.914" r="24.561" fill="#ffb8b8"/><path fill="#ffb8b8" d="M299.688 356.506h12.26l-1.168-22.946-18.094.001 7.002 22.945z"/><path d="M296.56 352.503h24.145a15.386 15.386 0 0115.387 15.386v.5l-39.53.001z" fill="#2f2e41"/><path fill="#ffb8b8" d="M168.975 339.148l10.43 6.443 11.067-20.135-12.622-7.896-8.875 21.588z"/><path d="M168.418 334.1l20.541 12.688h.001a15.386 15.386 0 015.004 21.177l-.263.425-33.632-20.774zM298.802 349.779a4.491 4.491 0 01-4.198-2.902l-44.346-106.026a1.5 1.5 0 00-2.65-.322L186.683 336.5a4.483 4.483 0 01-5.638 1.57l-8.336-3.891a4.518 4.518 0 01-2.203-5.92L220.419 217c-1.09-2.651-11.72-29.876 4.613-43.326l.114-.071 44.29-19.756 1.117 33.975 44.144 153.165a4.5 4.5 0 01-3.18 5.598l-11.562 3.043a4.515 4.515 0 01-1.153.15z" fill="#2f2e41"/><path d="M270.106 104.15c-1.687-6.769-4.077-13.591-7.28-16.741a40.555 40.555 0 01-3.316-3.65 24.273 24.273 0 00-7.95-6.516c1.128-.628 1.79-1.377 1.79-2.183 0-2.21-4.925-4-11-4s-11 1.79-11 4a1.952 1.952 0 00.654 1.347 23.408 23.408 0 00-14.472 19.515c-1.42 15.216-1.835 34.666 3.144 46.968a45.29 45.29 0 01.934 31.92 3.994 3.994 0 005.288 4.969l43.947-17.71a4 4 0 002.505-3.71v-26.897a112.954 112.954 0 00-3.244-27.313z" fill="#ccc"/><path d="M186.02 214.93a10.743 10.743 0 007.445-14.694l34.385-90.676-17.437-4.502L178.61 194.8a10.8 10.8 0 007.412 20.13z" fill="#ffb8b8"/><path d="M227.707 126.765l-22.034-10.313a4.817 4.817 0 01-1.974-7.022l13.39-20.223a13.377 13.377 0 0124.199 11.414l-6.925 23.163a4.817 4.817 0 01-6.656 2.981z" fill="#ccc"/><path d="M269.82 31.869a5.6 5.6 0 003.222-.583c1.812-1.185 1.633-3.88 1.02-5.957A31.001 31.001 0 00252.71 4.551c-3.497-.93-7.921-.894-9.921 2.121a25.258 25.258 0 00-32.677 4.014c-4.102 4.504-6.454 10.375-7.672 16.345-2.099 10.282-11.087 31.492-6.108 40.73 3.313 6.147 18.56 1.358 25.01 4.035s14.289 2.377 20.018-1.616 8.738-11.878 6.282-18.415c-.95-2.528-2.597-4.724-3.896-7.091s-2.271-5.105-1.691-7.742c.903-4.108 20.288-5.217 27.765-5.063z" fill="#2f2e41"/><path d="M477 368.56a.997.997 0 01-1 1H1a1 1 0 110-2h475a.997.997 0 011 1z" fill="#3f3d56"/><ellipse cx="548.85" cy="367.56" rx="35" ry="6" fill="#6c63ff" style="isolation:isolate"/><path d="M747.185 370h-134a1 1 0 010-2h134a1 1 0 110 2z" fill="#3f3d56"/><path d="M522.835 107.265a47.639 47.639 0 0137.628-46.567 47.628 47.628 0 100 93.135 47.639 47.639 0 01-37.628-46.568z" fill="#6c63ff" style="isolation:isolate"/><path d="M471.001 107.265a106.476 106.476 0 0193.462-105.67A106.502 106.502 0 00445 107.265c0 47.756 70.231 182.425 96.608 231.32a11.19 11.19 0 0019.707 0c.987-1.83 2.043-3.794 3.147-5.855C536.066 279.717 471 153.234 471 107.265z" fill="#6c63ff" style="isolation:isolate"/><path d="M551.553 345.667a12.027 12.027 0 01-10.732-6.411c-29.084-53.911-96.728-184.419-96.728-231.794a107.462 107.462 0 01214.923 0c0 47.38-67.645 177.884-96.73 231.794a12.027 12.027 0 01-10.733 6.411zM551.554 2a105.581 105.581 0 00-105.461 105.462c0 46.92 67.477 177.066 96.488 230.845a10.19 10.19 0 0017.946 0c29.012-53.777 96.49-183.92 96.49-230.845A105.581 105.581 0 00551.553 2z" fill="#3f3d56"/><path d="M551.554 156.09a48.628 48.628 0 1148.627-48.628 48.683 48.683 0 01-48.627 48.627zm0-95.256a46.628 46.628 0 1046.627 46.628 46.68 46.68 0 00-46.627-46.628z" fill="#3f3d56"/></svg>